<mxfile host="app.diagrams.net" modified="2023-10-24T21:46:30.132Z" agent="Mozilla/5.0 (Windows NT 10.0; Win64; x64) AppleWebKit/537.36 (KHTML, like Gecko) Chrome/116.0.0.0 Safari/537.36 OPR/102.0.0.0" etag="Rj3uxriZLIqlBrZT-ISJ" version="22.0.6" type="github">
  <diagram id="R2lEEEUBdFMjLlhIrx00" name="Page-1">
    <mxGraphModel dx="1553" dy="797" grid="0" gridSize="10" guides="1" tooltips="1" connect="1" arrows="1" fold="1" page="0" pageScale="1" pageWidth="850" pageHeight="1100" math="0" shadow="0" extFonts="Permanent Marker^https://fonts.googleapis.com/css?family=Permanent+Marker">
      <root>
        <mxCell id="0" />
        <mxCell id="1" parent="0" />
        <mxCell id="Eyg_COdOIiClmGqTsV9A-8" style="edgeStyle=orthogonalEdgeStyle;rounded=0;orthogonalLoop=1;jettySize=auto;html=1;endArrow=none;endFill=0;" edge="1" parent="1" source="Eyg_COdOIiClmGqTsV9A-1" target="Eyg_COdOIiClmGqTsV9A-4">
          <mxGeometry relative="1" as="geometry" />
        </mxCell>
        <mxCell id="Eyg_COdOIiClmGqTsV9A-18" style="edgeStyle=orthogonalEdgeStyle;rounded=0;orthogonalLoop=1;jettySize=auto;html=1;exitX=1;exitY=0.5;exitDx=0;exitDy=0;endArrow=none;endFill=0;" edge="1" parent="1" source="Eyg_COdOIiClmGqTsV9A-3" target="Eyg_COdOIiClmGqTsV9A-6">
          <mxGeometry relative="1" as="geometry" />
        </mxCell>
        <mxCell id="Eyg_COdOIiClmGqTsV9A-33" style="edgeStyle=orthogonalEdgeStyle;rounded=0;orthogonalLoop=1;jettySize=auto;html=1;exitX=0.5;exitY=0;exitDx=0;exitDy=0;entryX=1;entryY=1;entryDx=0;entryDy=0;curved=1;endArrow=none;endFill=0;" edge="1" parent="1" source="Eyg_COdOIiClmGqTsV9A-3" target="Eyg_COdOIiClmGqTsV9A-28">
          <mxGeometry relative="1" as="geometry" />
        </mxCell>
        <mxCell id="Eyg_COdOIiClmGqTsV9A-34" style="edgeStyle=orthogonalEdgeStyle;rounded=0;orthogonalLoop=1;jettySize=auto;html=1;exitX=0;exitY=0.25;exitDx=0;exitDy=0;curved=1;endArrow=none;endFill=0;" edge="1" parent="1" source="Eyg_COdOIiClmGqTsV9A-3" target="Eyg_COdOIiClmGqTsV9A-30">
          <mxGeometry relative="1" as="geometry" />
        </mxCell>
        <mxCell id="Eyg_COdOIiClmGqTsV9A-35" style="edgeStyle=orthogonalEdgeStyle;rounded=0;orthogonalLoop=1;jettySize=auto;html=1;exitX=0;exitY=0.75;exitDx=0;exitDy=0;endArrow=none;endFill=0;curved=1;" edge="1" parent="1" source="Eyg_COdOIiClmGqTsV9A-3" target="Eyg_COdOIiClmGqTsV9A-27">
          <mxGeometry relative="1" as="geometry" />
        </mxCell>
        <mxCell id="Eyg_COdOIiClmGqTsV9A-36" style="edgeStyle=orthogonalEdgeStyle;rounded=0;orthogonalLoop=1;jettySize=auto;html=1;exitX=0.5;exitY=1;exitDx=0;exitDy=0;endArrow=none;endFill=0;curved=1;" edge="1" parent="1" source="Eyg_COdOIiClmGqTsV9A-3" target="Eyg_COdOIiClmGqTsV9A-32">
          <mxGeometry relative="1" as="geometry" />
        </mxCell>
        <mxCell id="Eyg_COdOIiClmGqTsV9A-3" value="Profesor" style="whiteSpace=wrap;html=1;align=center;" vertex="1" parent="1">
          <mxGeometry x="210" y="390" width="100" height="40" as="geometry" />
        </mxCell>
        <mxCell id="Eyg_COdOIiClmGqTsV9A-9" style="edgeStyle=orthogonalEdgeStyle;rounded=0;orthogonalLoop=1;jettySize=auto;html=1;endArrow=none;endFill=0;" edge="1" parent="1" source="Eyg_COdOIiClmGqTsV9A-4" target="Eyg_COdOIiClmGqTsV9A-2">
          <mxGeometry relative="1" as="geometry" />
        </mxCell>
        <mxCell id="Eyg_COdOIiClmGqTsV9A-21" style="edgeStyle=orthogonalEdgeStyle;rounded=0;orthogonalLoop=1;jettySize=auto;html=1;exitX=0.5;exitY=1;exitDx=0;exitDy=0;entryX=0.5;entryY=0;entryDx=0;entryDy=0;endArrow=none;endFill=0;" edge="1" parent="1" source="Eyg_COdOIiClmGqTsV9A-5" target="Eyg_COdOIiClmGqTsV9A-1">
          <mxGeometry relative="1" as="geometry" />
        </mxCell>
        <mxCell id="Eyg_COdOIiClmGqTsV9A-22" style="edgeStyle=orthogonalEdgeStyle;rounded=0;orthogonalLoop=1;jettySize=auto;html=1;exitX=0;exitY=0.5;exitDx=0;exitDy=0;entryX=0;entryY=0.25;entryDx=0;entryDy=0;endArrow=none;endFill=0;" edge="1" parent="1" source="Eyg_COdOIiClmGqTsV9A-5" target="Eyg_COdOIiClmGqTsV9A-1">
          <mxGeometry relative="1" as="geometry" />
        </mxCell>
        <mxCell id="Eyg_COdOIiClmGqTsV9A-5" value="Representante" style="shape=rhombus;perimeter=rhombusPerimeter;whiteSpace=wrap;html=1;align=center;" vertex="1" parent="1">
          <mxGeometry x="903.04" y="128" width="120" height="60" as="geometry" />
        </mxCell>
        <mxCell id="Eyg_COdOIiClmGqTsV9A-12" value="" style="group" vertex="1" connectable="0" parent="1">
          <mxGeometry x="590" y="245" width="120" height="90" as="geometry" />
        </mxCell>
        <mxCell id="Eyg_COdOIiClmGqTsV9A-4" value="Matricular" style="shape=rhombus;perimeter=rhombusPerimeter;whiteSpace=wrap;html=1;align=center;" vertex="1" parent="Eyg_COdOIiClmGqTsV9A-12">
          <mxGeometry y="30" width="120" height="60" as="geometry" />
        </mxCell>
        <mxCell id="Eyg_COdOIiClmGqTsV9A-11" value="M:N" style="text;html=1;strokeColor=none;fillColor=none;align=center;verticalAlign=middle;whiteSpace=wrap;rounded=0;" vertex="1" parent="Eyg_COdOIiClmGqTsV9A-12">
          <mxGeometry x="30" width="60" height="30" as="geometry" />
        </mxCell>
        <mxCell id="Eyg_COdOIiClmGqTsV9A-41" style="edgeStyle=orthogonalEdgeStyle;curved=1;rounded=0;orthogonalLoop=1;jettySize=auto;html=1;exitX=1;exitY=0;exitDx=0;exitDy=0;endArrow=none;endFill=0;entryX=0;entryY=1;entryDx=0;entryDy=0;" edge="1" parent="1" source="Eyg_COdOIiClmGqTsV9A-1" target="Eyg_COdOIiClmGqTsV9A-40">
          <mxGeometry relative="1" as="geometry" />
        </mxCell>
        <mxCell id="Eyg_COdOIiClmGqTsV9A-42" style="edgeStyle=orthogonalEdgeStyle;curved=1;rounded=0;orthogonalLoop=1;jettySize=auto;html=1;exitX=1;exitY=0.5;exitDx=0;exitDy=0;endArrow=none;endFill=0;" edge="1" parent="1" source="Eyg_COdOIiClmGqTsV9A-1" target="Eyg_COdOIiClmGqTsV9A-39">
          <mxGeometry relative="1" as="geometry" />
        </mxCell>
        <mxCell id="Eyg_COdOIiClmGqTsV9A-43" style="edgeStyle=orthogonalEdgeStyle;curved=1;rounded=0;orthogonalLoop=1;jettySize=auto;html=1;exitX=1;exitY=1;exitDx=0;exitDy=0;entryX=0;entryY=0.5;entryDx=0;entryDy=0;endArrow=none;endFill=0;" edge="1" parent="1" source="Eyg_COdOIiClmGqTsV9A-1" target="Eyg_COdOIiClmGqTsV9A-38">
          <mxGeometry relative="1" as="geometry" />
        </mxCell>
        <mxCell id="Eyg_COdOIiClmGqTsV9A-45" style="edgeStyle=orthogonalEdgeStyle;curved=1;rounded=0;orthogonalLoop=1;jettySize=auto;html=1;exitX=0.5;exitY=1;exitDx=0;exitDy=0;endArrow=none;endFill=0;" edge="1" parent="1" source="Eyg_COdOIiClmGqTsV9A-1" target="Eyg_COdOIiClmGqTsV9A-37">
          <mxGeometry relative="1" as="geometry" />
        </mxCell>
        <mxCell id="Eyg_COdOIiClmGqTsV9A-1" value="Alumno" style="whiteSpace=wrap;html=1;align=center;" vertex="1" parent="1">
          <mxGeometry x="913.04" y="285" width="100" height="40" as="geometry" />
        </mxCell>
        <mxCell id="Eyg_COdOIiClmGqTsV9A-16" value="" style="group" vertex="1" connectable="0" parent="1">
          <mxGeometry x="540" y="380" width="160" height="50" as="geometry" />
        </mxCell>
        <mxCell id="Eyg_COdOIiClmGqTsV9A-2" value="Modulo" style="whiteSpace=wrap;html=1;align=center;" vertex="1" parent="Eyg_COdOIiClmGqTsV9A-16">
          <mxGeometry x="60" y="10" width="100" height="40" as="geometry" />
        </mxCell>
        <mxCell id="Eyg_COdOIiClmGqTsV9A-50" value="0:M" style="text;html=1;strokeColor=none;fillColor=none;align=center;verticalAlign=middle;whiteSpace=wrap;rounded=0;" vertex="1" parent="Eyg_COdOIiClmGqTsV9A-16">
          <mxGeometry width="60" height="30" as="geometry" />
        </mxCell>
        <mxCell id="Eyg_COdOIiClmGqTsV9A-19" style="edgeStyle=orthogonalEdgeStyle;rounded=0;orthogonalLoop=1;jettySize=auto;html=1;exitX=0;exitY=0.5;exitDx=0;exitDy=0;endArrow=none;endFill=0;" edge="1" parent="1" source="Eyg_COdOIiClmGqTsV9A-2" target="Eyg_COdOIiClmGqTsV9A-6">
          <mxGeometry relative="1" as="geometry" />
        </mxCell>
        <mxCell id="Eyg_COdOIiClmGqTsV9A-26" value="" style="group" vertex="1" connectable="0" parent="1">
          <mxGeometry x="390" y="350" width="120" height="90" as="geometry" />
        </mxCell>
        <mxCell id="Eyg_COdOIiClmGqTsV9A-6" value="Imparte" style="shape=rhombus;perimeter=rhombusPerimeter;whiteSpace=wrap;html=1;align=center;" vertex="1" parent="Eyg_COdOIiClmGqTsV9A-26">
          <mxGeometry y="30" width="120" height="60" as="geometry" />
        </mxCell>
        <mxCell id="Eyg_COdOIiClmGqTsV9A-25" value="1:M" style="text;html=1;strokeColor=none;fillColor=none;align=center;verticalAlign=middle;whiteSpace=wrap;rounded=0;" vertex="1" parent="Eyg_COdOIiClmGqTsV9A-26">
          <mxGeometry x="30" width="60" height="30" as="geometry" />
        </mxCell>
        <mxCell id="Eyg_COdOIiClmGqTsV9A-27" value="Dirección" style="ellipse;whiteSpace=wrap;html=1;align=center;" vertex="1" parent="1">
          <mxGeometry x="58" y="417" width="100" height="40" as="geometry" />
        </mxCell>
        <mxCell id="Eyg_COdOIiClmGqTsV9A-28" value="DNI" style="ellipse;whiteSpace=wrap;html=1;align=center;fontStyle=4;" vertex="1" parent="1">
          <mxGeometry x="158" y="320" width="100" height="40" as="geometry" />
        </mxCell>
        <mxCell id="Eyg_COdOIiClmGqTsV9A-30" value="Nombre" style="ellipse;whiteSpace=wrap;html=1;align=center;" vertex="1" parent="1">
          <mxGeometry x="58" y="360" width="100" height="40" as="geometry" />
        </mxCell>
        <mxCell id="Eyg_COdOIiClmGqTsV9A-32" value="Teléfono" style="ellipse;whiteSpace=wrap;html=1;align=center;" vertex="1" parent="1">
          <mxGeometry x="160" y="457" width="100" height="40" as="geometry" />
        </mxCell>
        <mxCell id="Eyg_COdOIiClmGqTsV9A-37" value="Fecha Nacimiento" style="ellipse;whiteSpace=wrap;html=1;align=center;" vertex="1" parent="1">
          <mxGeometry x="923.04" y="363" width="100" height="40" as="geometry" />
        </mxCell>
        <mxCell id="Eyg_COdOIiClmGqTsV9A-38" value="Apellidos" style="ellipse;whiteSpace=wrap;html=1;align=center;" vertex="1" parent="1">
          <mxGeometry x="1051.04" y="340" width="100" height="40" as="geometry" />
        </mxCell>
        <mxCell id="Eyg_COdOIiClmGqTsV9A-39" value="Nombres" style="ellipse;whiteSpace=wrap;html=1;align=center;" vertex="1" parent="1">
          <mxGeometry x="1051.04" y="285" width="100" height="40" as="geometry" />
        </mxCell>
        <mxCell id="Eyg_COdOIiClmGqTsV9A-40" value="N° Expediente" style="ellipse;whiteSpace=wrap;html=1;align=center;fontStyle=4;" vertex="1" parent="1">
          <mxGeometry x="1013.04" y="220" width="100" height="40" as="geometry" />
        </mxCell>
        <mxCell id="Eyg_COdOIiClmGqTsV9A-46" value="Código" style="ellipse;whiteSpace=wrap;html=1;align=center;fontStyle=4;" vertex="1" parent="1">
          <mxGeometry x="333" y="474" width="100" height="40" as="geometry" />
        </mxCell>
        <mxCell id="Eyg_COdOIiClmGqTsV9A-47" value="Nombre" style="ellipse;whiteSpace=wrap;html=1;align=center;" vertex="1" parent="1">
          <mxGeometry x="471" y="474" width="100" height="40" as="geometry" />
        </mxCell>
        <mxCell id="Eyg_COdOIiClmGqTsV9A-48" value="0:M" style="text;html=1;strokeColor=none;fillColor=none;align=center;verticalAlign=middle;whiteSpace=wrap;rounded=0;" vertex="1" parent="1">
          <mxGeometry x="853.04" y="305" width="60" height="30" as="geometry" />
        </mxCell>
        <mxCell id="Eyg_COdOIiClmGqTsV9A-49" value="0:M" style="text;html=1;strokeColor=none;fillColor=none;align=center;verticalAlign=middle;whiteSpace=wrap;rounded=0;" vertex="1" parent="1">
          <mxGeometry x="650" y="360" width="60" height="30" as="geometry" />
        </mxCell>
        <mxCell id="Eyg_COdOIiClmGqTsV9A-51" value="1:1" style="text;html=1;strokeColor=none;fillColor=none;align=center;verticalAlign=middle;whiteSpace=wrap;rounded=0;" vertex="1" parent="1">
          <mxGeometry x="310" y="380" width="60" height="30" as="geometry" />
        </mxCell>
        <mxCell id="Eyg_COdOIiClmGqTsV9A-52" style="edgeStyle=orthogonalEdgeStyle;curved=1;rounded=0;orthogonalLoop=1;jettySize=auto;html=1;exitX=0;exitY=1;exitDx=0;exitDy=0;endArrow=none;endFill=0;" edge="1" parent="1" source="Eyg_COdOIiClmGqTsV9A-6" target="Eyg_COdOIiClmGqTsV9A-46">
          <mxGeometry relative="1" as="geometry" />
        </mxCell>
        <mxCell id="Eyg_COdOIiClmGqTsV9A-54" style="edgeStyle=orthogonalEdgeStyle;curved=1;rounded=0;orthogonalLoop=1;jettySize=auto;html=1;exitX=1;exitY=1;exitDx=0;exitDy=0;endArrow=none;endFill=0;" edge="1" parent="1" source="Eyg_COdOIiClmGqTsV9A-6" target="Eyg_COdOIiClmGqTsV9A-47">
          <mxGeometry relative="1" as="geometry" />
        </mxCell>
      </root>
    </mxGraphModel>
  </diagram>
</mxfile>
